<svg xmlns:rdf="http://www.w3.org/1999/02/22-rdf-syntax-ns#" xmlns="http://www.w3.org/2000/svg" xml:space="preserve" height="3543.3" width="3543.3" version="1.1" y="0px" x="0px" xmlns:xlink="http://www.w3.org/1999/xlink" viewBox="0 0 3543.3069 3543.3069"><defs><radialGradient id="radialGradient3767" gradientUnits="userSpaceOnUse" cy="50" cx="50" r="29.844"><stop stop-color="#FFF" stop-opacity="0.25098041" offset="0"/><stop stop-color="#FFF" stop-opacity="0.25098039" offset="0.76623"/><stop stop-color="#FFF" stop-opacity="0" offset="1"/></radialGradient></defs><path style="enable-background:accumulate;color:#000000;" d="m79.844,50a29.844,29.844,0,1,1,-59.689,0,29.844,29.844,0,1,1,59.689,0z" fill-rule="nonzero" transform="matrix(59.362855,0,0,59.363401,-1196.4893,-1196.5003)" fill="url(#radialGradient3767)"/><path style="enable-background:accumulate;color:#000000;" fill-rule="nonzero" fill="#999" d="m1780.8,725.21c-592.72,0-1073.8,481.12-1073.8,1073.8s481.04,1073.8,1073.8,1073.8c592.72,0,1073.8-481.12,1073.8-1073.8s-481.04-1073.8-1073.8-1073.8zm0,205.4c479.27,0,868.43,389.08,868.43,868.39,0,479.32-389.16,868.4-868.43,868.4s-868.43-389.08-868.43-868.4,389.16-868.39,868.43-868.39z"/><path style="enable-background:accumulate;color:#000000;" fill-rule="nonzero" fill="#000" d="m1771.7,697.8c-592.72,0-1073.8,481.12-1073.8,1073.8,0,592.82,481.04,1073.8,1073.8,1073.8,592.72,0,1073.8-480.98,1073.8-1073.8,0-592.68-481.04-1073.8-1073.8-1073.8zm0,205.4c479.27,0,868.43,389.08,868.43,868.4s-389.16,868.53-868.43,868.53-868.43-389.21-868.43-868.53,389.16-868.4,868.43-868.4z"/><g fill="#b3b3b3" transform="matrix(53.856429,0,0,53.856924,703.44525,721.74746)"><path fill="#b3b3b3" d="M27.204,19.191,16.731,13.083c-0.954-0.557-1.724-0.112-1.719,0.992l0.054,12.124c0.005,1.104,0.784,1.553,1.741,1l10.393-6c0.956-0.552,0.958-1.451,0.004-2.008z"/></g><g transform="matrix(53.856429,0,0,53.856924,694.31545,694.34194)"><path fill="#000" d="M27.204,19.191,16.731,13.083c-0.954-0.557-1.724-0.112-1.719,0.992l0.054,12.124c0.005,1.104,0.784,1.553,1.741,1l10.393-6c0.956-0.552,0.958-1.451,0.004-2.008z"/></g></svg>
